<?xml version="1.0" standalone="no"?>
<!DOCTYPE svg PUBLIC "-//W3C//DTD SVG 20010904//EN"
 "http://www.w3.org/TR/2001/REC-SVG-20010904/DTD/svg10.dtd">
<svg version="1.0" xmlns="http://www.w3.org/2000/svg"
 width="640.000000pt" height="640.000000pt" viewBox="0 0 640.000000 640.000000"
 preserveAspectRatio="xMidYMid meet">
<metadata>
Created by potrace 1.11, written by Peter Selinger 2001-2013
</metadata>
<g transform="translate(0.000000,640.000000) scale(0.100000,-0.100000)"
fill="#000000" stroke="none">
<path d="M2945 6390 c-653 -59 -1250 -298 -1760 -706 -141 -113 -356 -328
-469 -469 -379 -473 -612 -1023 -692 -1630 -24 -180 -24 -590 0 -770 50 -381
150 -710 318 -1046 154 -308 354 -586 598 -829 505 -506 1150 -821 1875 -916
180 -24 590 -24 770 0 381 50 710 150 1046 318 308 154 586 354 829 598 506
505 821 1150 916 1875 24 180 24 590 0 770 -50 381 -150 710 -318 1046 -154
308 -354 586 -598 829 -504 504 -1160 825 -1870 915 -150 19 -506 27 -645 15z
m-490 -1981 c196 -24 409 -108 532 -209 159 -130 264 -322 313 -575 33 -174
40 -364 40 -1137 l0 -748 -370 0 -370 0 0 748 c0 424 -5 788 -10 842 -26 249
-96 375 -239 432 -51 21 -73 23 -241 23 -102 0 -211 -4 -242 -8 l-58 -8 0
-1015 0 -1014 -370 0 -370 0 0 1269 0 1269 108 26 c446 106 942 147 1277 105z
m2910 -5 c134 -17 334 -59 348 -73 7 -7 -11 -117 -50 -308 -58 -294 -59 -298
-84 -297 -13 0 -82 14 -154 30 -121 27 -144 29 -335 28 -136 -1 -225 -6 -265
-15 l-60 -14 -3 -1007 -2 -1008 -370 0 -370 0 2 1247 3 1247 75 24 c489 153
860 196 1265 146z"/>
</g>
</svg>
